<svg xmlns="http://www.w3.org/2000/svg" xmlns:xlink="http://www.w3.org/1999/xlink" width="200" zoomAndPan="magnify" viewBox="0 0 150 52.499999" height="70" preserveAspectRatio="xMidYMid meet" version="1.0"><defs><g/></defs><g fill="#38b6ff" fill-opacity="1"><g transform="translate(9.304118, 39.110823)"><g><path d="M 20.847656 -15.800781 C 20.804688 -16.84375 20.804688 -17.886719 20.847656 -18.976562 C 21.023438 -21.023438 21.457031 -23.152344 21.195312 -25.199219 C 21.066406 -26.375 20.324219 -27.332031 19.0625 -27.332031 C 17.929688 -27.332031 16.929688 -26.375 16.929688 -25.199219 C 16.972656 -24.460938 16.972656 -23.71875 16.972656 -22.980469 L 16.757812 -23.199219 C 15.886719 -23.980469 14.929688 -24.632812 13.972656 -25.242188 C 11.925781 -26.59375 9.792969 -27.550781 7.441406 -28.246094 C 7.179688 -28.332031 6.964844 -28.332031 6.789062 -28.289062 C 5.875 -28.59375 4.917969 -28.855469 3.960938 -28.941406 C 2.480469 -29.074219 1.21875 -28.160156 0.871094 -26.722656 C 0.523438 -25.285156 1.304688 -24.023438 2.089844 -22.9375 C 3.699219 -20.847656 5.570312 -19.019531 7.617188 -17.367188 L 8.269531 -16.84375 C 8.878906 -16.234375 9.488281 -15.625 10.054688 -14.972656 C 11.535156 -13.449219 12.925781 -11.882812 14.277344 -10.269531 C 14.710938 -9.75 15.144531 -9.226562 15.539062 -8.703125 C 15.625 -8.445312 15.753906 -8.226562 15.84375 -8.007812 C 16.015625 -7.660156 16.40625 -6.832031 16.191406 -6.355469 C 16.191406 -6.222656 16.191406 -6.09375 16.058594 -5.960938 C 15.710938 -5.441406 14.839844 -5.351562 14.277344 -5.308594 C 13.316406 -5.222656 12.402344 -5.222656 11.488281 -5.308594 C 10.96875 -5.351562 10.445312 -5.441406 9.921875 -5.613281 C 9.402344 -6.007812 8.921875 -6.484375 8.488281 -6.921875 C 7.703125 -7.746094 7.179688 -8.835938 6.789062 -9.878906 C 5.789062 -12.753906 5.65625 -15.84375 4.742188 -18.714844 C 4.394531 -19.757812 3.523438 -20.152344 2.480469 -20.019531 C 1.609375 -19.890625 0.957031 -19.0625 0.785156 -18.28125 C 0.523438 -17.015625 0.785156 -15.667969 0.957031 -14.449219 C 1.132812 -13.058594 1.304688 -11.664062 1.652344 -10.316406 C 2.308594 -7.921875 2.785156 -5.484375 3.046875 -3.046875 C 3.132812 -2.613281 3.265625 -2.21875 3.523438 -1.914062 C 3.65625 -1.132812 4.089844 -0.390625 4.570312 0.0859375 C 5.003906 0.523438 5.703125 0.523438 6.136719 0.0859375 C 6.703125 -0.390625 7.007812 -1.089844 7.179688 -1.828125 C 8.007812 -1.304688 8.921875 -0.914062 9.878906 -0.695312 C 11.273438 -0.304688 12.925781 -0.128906 14.40625 -0.347656 L 14.535156 -0.347656 C 17.277344 -0.480469 20.238281 -2.523438 20.324219 -5.351562 C 20.5 -6.484375 20.238281 -7.660156 19.757812 -8.75 C 19.5 -9.921875 18.890625 -11.011719 18.105469 -12.011719 C 16.972656 -13.449219 15.667969 -14.796875 14.40625 -16.148438 C 13.101562 -17.582031 11.707031 -18.976562 10.316406 -20.324219 L 8.53125 -22.023438 C 9.664062 -21.761719 10.835938 -21.371094 11.925781 -20.890625 C 14.015625 -19.933594 15.929688 -18.585938 17.191406 -16.710938 C 17.234375 -16.710938 17.234375 -16.667969 17.277344 -16.667969 C 17.539062 -14.625 18.28125 -11.75 20.414062 -12.273438 C 21.023438 -12.449219 21.371094 -13.101562 21.195312 -13.667969 C 21.066406 -14.40625 20.890625 -15.058594 20.847656 -15.800781 Z M 20.847656 -15.800781 "/></g></g></g><g fill="#38b6ff" fill-opacity="1"><g transform="translate(27.495315, 39.110823)"><g><path d="M 20.847656 -15.800781 C 20.804688 -16.84375 20.804688 -17.886719 20.847656 -18.976562 C 21.023438 -21.023438 21.457031 -23.152344 21.195312 -25.199219 C 21.066406 -26.375 20.324219 -27.332031 19.0625 -27.332031 C 17.929688 -27.332031 16.929688 -26.375 16.929688 -25.199219 C 16.972656 -24.460938 16.972656 -23.71875 16.972656 -22.980469 L 16.757812 -23.199219 C 15.886719 -23.980469 14.929688 -24.632812 13.972656 -25.242188 C 11.925781 -26.59375 9.792969 -27.550781 7.441406 -28.246094 C 7.179688 -28.332031 6.964844 -28.332031 6.789062 -28.289062 C 5.875 -28.59375 4.917969 -28.855469 3.960938 -28.941406 C 2.480469 -29.074219 1.21875 -28.160156 0.871094 -26.722656 C 0.523438 -25.285156 1.304688 -24.023438 2.089844 -22.9375 C 3.699219 -20.847656 5.570312 -19.019531 7.617188 -17.367188 L 8.269531 -16.84375 C 8.878906 -16.234375 9.488281 -15.625 10.054688 -14.972656 C 11.535156 -13.449219 12.925781 -11.882812 14.277344 -10.269531 C 14.710938 -9.75 15.144531 -9.226562 15.539062 -8.703125 C 15.625 -8.445312 15.753906 -8.226562 15.84375 -8.007812 C 16.015625 -7.660156 16.40625 -6.832031 16.191406 -6.355469 C 16.191406 -6.222656 16.191406 -6.09375 16.058594 -5.960938 C 15.710938 -5.441406 14.839844 -5.351562 14.277344 -5.308594 C 13.316406 -5.222656 12.402344 -5.222656 11.488281 -5.308594 C 10.96875 -5.351562 10.445312 -5.441406 9.921875 -5.613281 C 9.402344 -6.007812 8.921875 -6.484375 8.488281 -6.921875 C 7.703125 -7.746094 7.179688 -8.835938 6.789062 -9.878906 C 5.789062 -12.753906 5.65625 -15.84375 4.742188 -18.714844 C 4.394531 -19.757812 3.523438 -20.152344 2.480469 -20.019531 C 1.609375 -19.890625 0.957031 -19.0625 0.785156 -18.28125 C 0.523438 -17.015625 0.785156 -15.667969 0.957031 -14.449219 C 1.132812 -13.058594 1.304688 -11.664062 1.652344 -10.316406 C 2.308594 -7.921875 2.785156 -5.484375 3.046875 -3.046875 C 3.132812 -2.613281 3.265625 -2.21875 3.523438 -1.914062 C 3.65625 -1.132812 4.089844 -0.390625 4.570312 0.0859375 C 5.003906 0.523438 5.703125 0.523438 6.136719 0.0859375 C 6.703125 -0.390625 7.007812 -1.089844 7.179688 -1.828125 C 8.007812 -1.304688 8.921875 -0.914062 9.878906 -0.695312 C 11.273438 -0.304688 12.925781 -0.128906 14.40625 -0.347656 L 14.535156 -0.347656 C 17.277344 -0.480469 20.238281 -2.523438 20.324219 -5.351562 C 20.5 -6.484375 20.238281 -7.660156 19.757812 -8.75 C 19.5 -9.921875 18.890625 -11.011719 18.105469 -12.011719 C 16.972656 -13.449219 15.667969 -14.796875 14.40625 -16.148438 C 13.101562 -17.582031 11.707031 -18.976562 10.316406 -20.324219 L 8.53125 -22.023438 C 9.664062 -21.761719 10.835938 -21.371094 11.925781 -20.890625 C 14.015625 -19.933594 15.929688 -18.585938 17.191406 -16.710938 C 17.234375 -16.710938 17.234375 -16.667969 17.277344 -16.667969 C 17.539062 -14.625 18.28125 -11.75 20.414062 -12.273438 C 21.023438 -12.449219 21.371094 -13.101562 21.195312 -13.667969 C 21.066406 -14.40625 20.890625 -15.058594 20.847656 -15.800781 Z M 20.847656 -15.800781 "/></g></g></g><g fill="#38b6ff" fill-opacity="1"><g transform="translate(45.686512, 39.110823)"><g><path d="M 15.929688 -1.304688 C 16.929688 1.828125 20.152344 1.742188 19.671875 -2.175781 C 19.324219 -4.789062 18.585938 -8.3125 18.019531 -10.878906 C 20.414062 -12.402344 19.933594 -16.320312 16.625 -16.710938 C 16.320312 -19.324219 16.058594 -25.894531 16.015625 -25.460938 C 15.84375 -24.023438 15.753906 -22.5 15.710938 -21.023438 C 15.667969 -21.023438 15.667969 -21.023438 15.625 -21.066406 C 15.449219 -22.761719 15.277344 -24.546875 15.144531 -26.289062 C 15.015625 -27.679688 14.101562 -28.550781 12.839844 -28.636719 C 12.492188 -29.335938 11.621094 -29.855469 10.878906 -29.8125 C 8.660156 -29.769531 7.789062 -27.070312 7.007812 -25.375 C 5.875 -22.675781 5.179688 -19.847656 4.570312 -16.972656 C -0.609375 -16.191406 -0.609375 -11.445312 2.175781 -10.75 C 2.21875 -10.621094 2.175781 -10.445312 2.132812 -10.359375 C 2.480469 -10.359375 2.917969 -10.402344 3.308594 -10.445312 C 2.65625 -7.921875 2.21875 -5.398438 1.871094 -2.828125 C 1.304688 1.261719 6.703125 1.871094 7.050781 -2.089844 L 7.3125 -4.046875 C 7.3125 -4.046875 8.050781 -8.488281 8.617188 -10.621094 L 9.007812 -10.621094 C 8.183594 -8.050781 7.789062 -5.398438 7.574219 -2.785156 C 7.53125 -2.261719 8.269531 -2.261719 8.269531 -2.785156 C 8.488281 -5.441406 8.964844 -8.007812 9.617188 -10.621094 L 13.011719 -10.664062 C 13.363281 -9.097656 15.101562 -1.609375 15.929688 -1.304688 Z M 9.488281 -16.277344 C 9.878906 -18.324219 10.402344 -20.0625 11.097656 -22.5 C 11.535156 -20.5 11.75 -17.539062 11.925781 -16.453125 C 11.316406 -16.40625 10.097656 -16.363281 9.488281 -16.277344 Z M 9.488281 -16.277344 "/></g></g></g><g fill="#38b6ff" fill-opacity="1"><g transform="translate(62.136879, 39.110823)"><g><path d="M 24.503906 -2.175781 C 24.808594 -3.265625 24.15625 -4.132812 23.371094 -4.875 C 21.804688 -6.746094 19.976562 -8.488281 18.019531 -10.011719 C 17.0625 -10.75 16.105469 -11.402344 15.058594 -12.054688 C 14.839844 -12.1875 14.625 -12.316406 14.363281 -12.449219 L 16.453125 -12.316406 C 17.582031 -12.1875 18.453125 -12.054688 19.453125 -11.96875 C 20.195312 -11.882812 20.847656 -12.273438 21.414062 -12.753906 C 25.808594 -16.105469 13.449219 -23.9375 11.140625 -25.15625 C 9.921875 -25.808594 8.617188 -26.375 7.3125 -26.808594 C 6.09375 -27.246094 4.742188 -27.464844 3.4375 -27.464844 C 2.089844 -27.417969 0.609375 -27.160156 -0.261719 -26.027344 C -1.175781 -24.808594 0 -23.371094 0.871094 -22.546875 C 1.21875 -22.285156 1.566406 -21.980469 2.003906 -21.761719 C 2.21875 -19.585938 2.394531 -17.410156 2.566406 -15.234375 C 2.566406 -15.234375 2.613281 -15.191406 2.613281 -15.144531 C 1.871094 -14.796875 1.347656 -14.144531 1.347656 -13.273438 C 1.347656 -12.1875 2.046875 -11.535156 2.960938 -11.273438 C 3.175781 -8.660156 3.394531 -6.050781 3.480469 -3.4375 C 3.4375 -3.394531 3.394531 -3.394531 3.351562 -3.394531 C 2.4375 -3.351562 1.699219 -2.699219 1.699219 -1.742188 C 1.699219 -1.4375 1.785156 -1.132812 1.957031 -0.871094 C 1.957031 -0.785156 1.957031 -0.738281 2.003906 -0.652344 C 2.21875 0.175781 3.003906 0.523438 3.828125 0.390625 C 4.351562 0.261719 4.917969 0.175781 5.484375 0.0859375 C 5.613281 0.128906 5.789062 0.128906 5.960938 0.128906 C 6.398438 0.128906 6.789062 0.0429688 7.136719 -0.175781 C 9.574219 -0.480469 12.011719 -0.652344 14.535156 -0.523438 C 16.320312 -0.480469 18.105469 -0.175781 19.933594 -0.21875 C 21.542969 -0.261719 23.9375 -0.347656 24.503906 -2.175781 Z M 15.234375 -16.800781 C 14.015625 -16.84375 12.796875 -16.84375 11.535156 -16.800781 C 10.140625 -16.757812 8.703125 -16.625 7.269531 -16.40625 C 7.050781 -18.324219 6.789062 -20.195312 6.398438 -22.066406 C 6.441406 -22.066406 6.484375 -22.066406 6.527344 -22.066406 L 7.226562 -21.9375 C 7.617188 -21.847656 8.007812 -21.71875 8.398438 -21.585938 C 9.574219 -21.195312 10.925781 -20.414062 12.144531 -19.585938 C 12.578125 -19.28125 13.011719 -18.890625 13.578125 -18.410156 C 14.144531 -17.886719 14.710938 -17.367188 15.234375 -16.800781 Z M 17.582031 -5.351562 C 18.191406 -4.875 18.757812 -4.308594 19.28125 -3.742188 C 18.539062 -3.917969 17.800781 -4.046875 17.015625 -4.132812 C 15.277344 -4.394531 13.535156 -4.484375 11.792969 -4.4375 C 10.835938 -4.394531 9.835938 -4.308594 8.835938 -4.179688 C 8.75 -5.046875 8.617188 -5.917969 8.53125 -6.789062 L 8.007812 -10.664062 C 8.140625 -10.664062 8.269531 -10.621094 8.355469 -10.574219 C 10.054688 -10.097656 11.707031 -9.269531 13.230469 -8.445312 C 14.796875 -7.574219 16.234375 -6.527344 17.582031 -5.351562 Z M 17.582031 -5.351562 "/></g></g></g><g fill="#38b6ff" fill-opacity="1"><g transform="translate(81.677207, 39.110823)"><g><path d="M 15.929688 -1.304688 C 16.929688 1.828125 20.152344 1.742188 19.671875 -2.175781 C 19.324219 -4.789062 18.585938 -8.3125 18.019531 -10.878906 C 20.414062 -12.402344 19.933594 -16.320312 16.625 -16.710938 C 16.320312 -19.324219 16.058594 -25.894531 16.015625 -25.460938 C 15.84375 -24.023438 15.753906 -22.5 15.710938 -21.023438 C 15.667969 -21.023438 15.667969 -21.023438 15.625 -21.066406 C 15.449219 -22.761719 15.277344 -24.546875 15.144531 -26.289062 C 15.015625 -27.679688 14.101562 -28.550781 12.839844 -28.636719 C 12.492188 -29.335938 11.621094 -29.855469 10.878906 -29.8125 C 8.660156 -29.769531 7.789062 -27.070312 7.007812 -25.375 C 5.875 -22.675781 5.179688 -19.847656 4.570312 -16.972656 C -0.609375 -16.191406 -0.609375 -11.445312 2.175781 -10.75 C 2.21875 -10.621094 2.175781 -10.445312 2.132812 -10.359375 C 2.480469 -10.359375 2.917969 -10.402344 3.308594 -10.445312 C 2.65625 -7.921875 2.21875 -5.398438 1.871094 -2.828125 C 1.304688 1.261719 6.703125 1.871094 7.050781 -2.089844 L 7.3125 -4.046875 C 7.3125 -4.046875 8.050781 -8.488281 8.617188 -10.621094 L 9.007812 -10.621094 C 8.183594 -8.050781 7.789062 -5.398438 7.574219 -2.785156 C 7.53125 -2.261719 8.269531 -2.261719 8.269531 -2.785156 C 8.488281 -5.441406 8.964844 -8.007812 9.617188 -10.621094 L 13.011719 -10.664062 C 13.363281 -9.097656 15.101562 -1.609375 15.929688 -1.304688 Z M 9.488281 -16.277344 C 9.878906 -18.324219 10.402344 -20.0625 11.097656 -22.5 C 11.535156 -20.5 11.75 -17.539062 11.925781 -16.453125 C 11.316406 -16.40625 10.097656 -16.363281 9.488281 -16.277344 Z M 9.488281 -16.277344 "/></g></g></g><g fill="#38b6ff" fill-opacity="1"><g transform="translate(98.127579, 39.110823)"><g><path d="M 18.890625 0.128906 C 19.714844 0.128906 20.414062 -0.390625 20.890625 -1.042969 C 20.542969 -6.398438 20.0625 -11.792969 19.195312 -17.105469 C 18.800781 -19.714844 18.367188 -22.371094 17.671875 -24.894531 C 17.453125 -25.722656 17.191406 -26.550781 17.015625 -27.375 C 16.929688 -27.464844 16.84375 -27.550781 16.710938 -27.59375 C 15.972656 -28.117188 14.667969 -28.203125 14.144531 -27.246094 C 14.144531 -27.203125 14.101562 -27.203125 14.101562 -27.160156 C 13.796875 -26.984375 13.535156 -26.679688 13.363281 -26.375 C 12.882812 -25.503906 13.273438 -24.675781 13.492188 -23.851562 C 13.925781 -22.285156 14.1875 -20.71875 14.492188 -19.148438 C 14.886719 -16.929688 15.363281 -14.625 15.582031 -12.449219 L 14.886719 -13.796875 C 14.886719 -13.925781 14.886719 -14.058594 14.796875 -14.230469 C 13.925781 -16.015625 13.011719 -17.757812 12.011719 -19.453125 C 10.835938 -21.585938 9.617188 -23.675781 8.140625 -25.636719 C 7.3125 -26.722656 4.832031 -29.289062 3.480469 -27.507812 C 3.265625 -27.203125 3.132812 -26.855469 3.132812 -26.503906 C 2.828125 -26.460938 2.523438 -26.289062 2.308594 -26.113281 C 2.175781 -24.242188 2.261719 -22.328125 2.308594 -20.414062 C 2.394531 -17.453125 2.4375 -14.449219 2.566406 -11.488281 C 2.699219 -7.835938 2.828125 -4.179688 3.046875 -0.523438 C 3.351562 -0.128906 3.742188 0.175781 4.265625 0.304688 C 5.222656 0.609375 6.222656 0.261719 6.746094 -0.609375 C 8.53125 -0.871094 8.050781 -3.394531 8.007812 -4.742188 C 7.964844 -6.484375 7.921875 -8.226562 7.835938 -9.964844 C 7.835938 -12.925781 7.878906 -15.886719 7.835938 -18.84375 C 8.050781 -18.539062 8.269531 -18.191406 8.53125 -17.886719 L 16.105469 -4.351562 L 16.363281 -2.871094 C 16.582031 -1.742188 16.84375 -0.390625 18.019531 0.128906 C 18.28125 0.261719 18.628906 0.304688 18.890625 0.128906 Z M 21.328125 -1.480469 C 21.371094 -2.089844 21.328125 -3.046875 21.28125 -3.351562 C 21.328125 -11.054688 20.367188 -18.757812 18.800781 -26.332031 C 18.714844 -26.765625 18.191406 -26.765625 17.976562 -26.503906 C 17.800781 -26.332031 17.800781 -26.15625 17.84375 -26.027344 C 19.628906 -17.929688 20.585938 -9.664062 21.152344 -1.347656 C 21.195312 -1.4375 21.238281 -1.480469 21.328125 -1.480469 Z M 2.261719 -4.65625 C 2.4375 -2.785156 2.613281 -2.871094 2.613281 -2.871094 L 2.21875 -12.664062 C 2.132812 -15.710938 2.046875 -18.757812 2.003906 -21.761719 C 1.957031 -23.152344 1.914062 -24.546875 1.957031 -25.941406 C 1.652344 -25.242188 1.566406 -24.417969 1.609375 -23.675781 C 1.652344 -20.542969 1.699219 -17.410156 1.828125 -14.320312 C 1.957031 -11.183594 2.003906 -7.746094 2.261719 -4.65625 Z M 7.136719 -6.789062 C 7.179688 -6.265625 7.226562 -5.789062 7.226562 -5.265625 C 7.3125 -4.394531 7.355469 -3.523438 7.398438 -2.699219 C 7.441406 -2.308594 7.3125 -1.652344 7.050781 -1.21875 C 7.3125 -2.308594 6.875 -3.308594 6.875 -4.003906 L 6.921875 -6.617188 C 6.964844 -6.660156 7.007812 -6.660156 7.007812 -6.660156 Z M 7.136719 -6.789062 "/></g></g></g><g fill="#38b6ff" fill-opacity="1"><g transform="translate(116.362294, 39.110823)"><g><path d="M 24.199219 -17.625 C 24.460938 -18.324219 24.589844 -19.148438 24.371094 -19.890625 C 24.066406 -20.933594 22.980469 -21.5 21.9375 -21.371094 C 19.890625 -21.109375 17.886719 -20.542969 15.886719 -20.0625 C 13.882812 -19.585938 11.882812 -19.0625 9.921875 -18.496094 C 9.835938 -18.453125 9.75 -18.453125 9.707031 -18.410156 C 8.835938 -18.191406 8.53125 -17.453125 8.617188 -16.757812 L 8.355469 -16.625 C 6.660156 -15.710938 7.835938 -13.058594 9.664062 -13.535156 C 11.621094 -14.058594 13.535156 -14.667969 15.496094 -15.101562 C 16.453125 -15.320312 17.410156 -15.496094 18.367188 -15.710938 L 18.539062 -15.710938 C 18.148438 -15.015625 17.757812 -14.320312 17.320312 -13.621094 C 16.40625 -12.144531 15.363281 -10.792969 14.101562 -9.574219 C 13.011719 -8.53125 11.664062 -7.617188 10.269531 -7.007812 C 10.011719 -6.921875 9.707031 -6.789062 9.402344 -6.703125 C 8.355469 -6.441406 7.3125 -6.355469 6.265625 -6.527344 L 5.703125 -6.660156 C 4.65625 -7.3125 4.265625 -8.703125 4.308594 -10.011719 C 4.308594 -11.578125 4.832031 -13.1875 5.484375 -14.582031 C 6.789062 -17.367188 9.007812 -19.714844 11.707031 -21.195312 C 13.273438 -22.023438 15.015625 -22.589844 16.757812 -22.847656 C 17.625 -22.980469 18.496094 -23.023438 19.367188 -23.023438 C 20.367188 -22.980469 21.328125 -23.066406 22.285156 -23.023438 C 22.589844 -23.023438 22.761719 -23.328125 22.675781 -23.589844 C 23.152344 -23.675781 23.589844 -23.808594 23.761719 -24.285156 C 24.285156 -25.851562 22.285156 -26.332031 21.195312 -26.550781 C 17.976562 -27.203125 14.535156 -26.679688 11.402344 -25.851562 C 11.054688 -25.765625 10.878906 -25.546875 10.835938 -25.285156 C 7.921875 -24.371094 5.308594 -22.457031 3.308594 -20.152344 C 1.089844 -17.582031 -0.566406 -14.230469 -0.0429688 -10.75 C 0.175781 -9.054688 0.914062 -7.53125 2.003906 -6.355469 C 2.566406 -5.308594 3.351562 -4.4375 4.308594 -3.875 C 5.09375 -3.394531 5.960938 -3.222656 6.832031 -3.175781 C 6.875 -2.785156 7.53125 -2.65625 7.878906 -2.613281 C 9.054688 -2.613281 10.183594 -2.742188 11.316406 -3.003906 C 13.667969 -3.570312 15.753906 -4.742188 17.625 -6.179688 C 19.714844 -7.835938 21.414062 -9.878906 22.847656 -12.144531 C 22.9375 -12.316406 23.023438 -12.492188 23.109375 -12.664062 L 23.242188 -13.058594 C 23.457031 -13.753906 23.589844 -14.449219 23.761719 -15.144531 C 23.675781 -15.234375 23.632812 -15.320312 23.589844 -15.40625 C 20.671875 -9.054688 15.058594 -5.308594 13.316406 -4.484375 C 12.402344 -4.003906 11.402344 -3.613281 10.402344 -3.351562 C 10.054688 -3.265625 7.484375 -2.699219 7.050781 -3.175781 C 8.007812 -3.175781 9.054688 -3.351562 9.964844 -3.613281 L 10.445312 -3.742188 C 12.273438 -4.222656 14.015625 -5.136719 15.582031 -6.222656 C 16.539062 -6.875 17.410156 -7.703125 18.191406 -8.53125 C 19.714844 -9.921875 21.023438 -11.535156 22.109375 -13.316406 C 22.980469 -14.667969 23.632812 -16.105469 24.199219 -17.625 Z M 24.199219 -17.625 "/></g></g></g><g fill="#2b2b2b" fill-opacity="1"><g transform="translate(43.869131, 45.155371)"><g><path d="M 0.261719 0 L 1.644531 0 L 1.644531 -1.3125 L 3.90625 -1.3125 L 3.90625 -2.097656 L 1.644531 -2.097656 L 1.644531 -2.78125 L 4.21875 -2.78125 L 4.21875 -3.746094 L 0.261719 -3.746094 Z M 0.261719 0 "/></g></g></g><g fill="#2b2b2b" fill-opacity="1"><g transform="translate(48.114351, 45.155371)"><g><path d="M 0.261719 0 L 1.636719 0 L 1.636719 -3.746094 L 0.261719 -3.746094 Z M 0.261719 0 "/></g></g></g><g fill="#2b2b2b" fill-opacity="1"><g transform="translate(49.94121, 45.155371)"><g><path d="M 0.261719 0 L 1.566406 0 L 1.566406 -2.464844 L 1.570312 -2.464844 L 3.582031 0 L 5.238281 0 L 5.238281 -3.746094 L 3.9375 -3.746094 L 3.9375 -1.3125 L 3.929688 -1.3125 L 1.921875 -3.746094 L 0.261719 -3.746094 Z M 0.261719 0 "/></g></g></g><g fill="#2b2b2b" fill-opacity="1"><g transform="translate(55.369439, 45.155371)"><g><path d="M 0.261719 0 L 2.929688 0 C 4.390625 0 5.203125 -0.671875 5.203125 -1.875 C 5.203125 -3.078125 4.390625 -3.746094 2.929688 -3.746094 L 0.261719 -3.746094 Z M 1.601562 -0.933594 L 1.601562 -2.820312 L 2.730469 -2.820312 C 3.453125 -2.820312 3.859375 -2.480469 3.859375 -1.875 C 3.859375 -1.273438 3.453125 -0.933594 2.730469 -0.933594 Z M 1.601562 -0.933594 "/></g></g></g><g fill="#2b2b2b" fill-opacity="1"><g transform="translate(60.666804, 45.155371)"><g/></g></g><g fill="#2b2b2b" fill-opacity="1"><g transform="translate(61.818404, 45.155371)"><g><path d="M 1.816406 0 L 3.199219 0 L 3.199219 -1.28125 L 4.988281 -3.746094 L 3.523438 -3.746094 L 2.511719 -2.175781 L 2.507812 -2.175781 L 1.445312 -3.746094 L 0 -3.746094 L 1.816406 -1.28125 Z M 1.816406 0 "/></g></g></g><g fill="#2b2b2b" fill-opacity="1"><g transform="translate(66.733646, 45.155371)"><g><path d="M 2.921875 0.132812 C 4.574219 0.132812 5.675781 -0.671875 5.675781 -1.875 C 5.675781 -3.082031 4.574219 -3.878906 2.921875 -3.878906 C 1.265625 -3.878906 0.167969 -3.082031 0.167969 -1.875 C 0.167969 -0.671875 1.265625 0.132812 2.921875 0.132812 Z M 2.921875 -0.835938 C 2.097656 -0.835938 1.550781 -1.25 1.550781 -1.875 C 1.550781 -2.496094 2.097656 -2.910156 2.921875 -2.910156 C 3.742188 -2.910156 4.285156 -2.496094 4.285156 -1.875 C 4.285156 -1.25 3.742188 -0.835938 2.921875 -0.835938 Z M 2.921875 -0.835938 "/></g></g></g><g fill="#2b2b2b" fill-opacity="1"><g transform="translate(72.502117, 45.155371)"><g><path d="M 2.628906 0.0898438 C 4.15625 0.0898438 5.039062 -0.554688 5.039062 -1.71875 L 5.039062 -3.746094 L 3.660156 -3.746094 L 3.660156 -1.796875 C 3.660156 -1.199219 3.273438 -0.90625 2.628906 -0.90625 C 1.980469 -0.90625 1.589844 -1.199219 1.589844 -1.796875 L 1.589844 -3.746094 L 0.210938 -3.746094 L 0.210938 -1.71875 C 0.210938 -0.554688 1.09375 0.0898438 2.628906 0.0898438 Z M 2.628906 0.0898438 "/></g></g></g><g fill="#2b2b2b" fill-opacity="1"><g transform="translate(77.679088, 45.155371)"><g><path d="M 4.367188 0.105469 C 4.707031 0.105469 5.121094 -0.015625 5.324219 -0.1875 L 5.105469 -0.742188 C 5.039062 -0.671875 4.914062 -0.628906 4.828125 -0.628906 C 4.675781 -0.628906 4.582031 -0.691406 4.507812 -0.796875 L 4.25 -1.183594 C 4.160156 -1.3125 4.046875 -1.421875 3.921875 -1.464844 L 3.921875 -1.472656 C 4.605469 -1.601562 5.007812 -1.996094 5.007812 -2.558594 C 5.007812 -3.3125 4.429688 -3.746094 3.421875 -3.746094 L 0.261719 -3.746094 L 0.261719 0 L 1.644531 0 L 1.644531 -1.242188 L 2.417969 -1.242188 C 2.679688 -1.242188 2.90625 -1.128906 3.0625 -0.90625 L 3.28125 -0.542969 C 3.5 -0.230469 3.789062 0.105469 4.367188 0.105469 Z M 1.644531 -2.011719 L 1.644531 -2.9375 L 3.003906 -2.9375 C 3.390625 -2.9375 3.621094 -2.765625 3.621094 -2.476562 C 3.621094 -2.183594 3.390625 -2.011719 3 -2.011719 Z M 1.644531 -2.011719 "/></g></g></g><g fill="#2b2b2b" fill-opacity="1"><g transform="translate(82.929342, 45.155371)"><g/></g></g><g fill="#2b2b2b" fill-opacity="1"><g transform="translate(84.080941, 45.155371)"><g><path d="M 0.261719 0 L 1.644531 0 L 1.644531 -1.492188 L 3.691406 -1.492188 L 3.691406 0 L 5.078125 0 L 5.078125 -3.746094 L 3.691406 -3.746094 L 3.691406 -2.421875 L 1.644531 -2.421875 L 1.644531 -3.746094 L 0.261719 -3.746094 Z M 0.261719 0 "/></g></g></g><g fill="#2b2b2b" fill-opacity="1"><g transform="translate(89.346897, 45.155371)"><g><path d="M 2.921875 0.132812 C 4.574219 0.132812 5.675781 -0.671875 5.675781 -1.875 C 5.675781 -3.082031 4.574219 -3.878906 2.921875 -3.878906 C 1.265625 -3.878906 0.167969 -3.082031 0.167969 -1.875 C 0.167969 -0.671875 1.265625 0.132812 2.921875 0.132812 Z M 2.921875 -0.835938 C 2.097656 -0.835938 1.550781 -1.25 1.550781 -1.875 C 1.550781 -2.496094 2.097656 -2.910156 2.921875 -2.910156 C 3.742188 -2.910156 4.285156 -2.496094 4.285156 -1.875 C 4.285156 -1.25 3.742188 -0.835938 2.921875 -0.835938 Z M 2.921875 -0.835938 "/></g></g></g><g fill="#2b2b2b" fill-opacity="1"><g transform="translate(95.115369, 45.155371)"><g><path d="M 0.261719 0 L 1.566406 0 L 1.566406 -2.335938 L 1.574219 -2.335938 L 2.789062 0 L 3.957031 0 L 5.128906 -2.339844 L 5.140625 -2.339844 L 5.140625 0 L 6.445312 0 L 6.445312 -3.746094 L 4.636719 -3.746094 L 3.355469 -1.21875 L 3.34375 -1.21875 L 2.042969 -3.746094 L 0.261719 -3.746094 Z M 0.261719 0 "/></g></g></g><g fill="#2b2b2b" fill-opacity="1"><g transform="translate(101.747538, 45.155371)"><g><path d="M 0.261719 0 L 4.277344 0 L 4.277344 -0.847656 L 1.601562 -0.847656 L 1.601562 -1.542969 L 4.015625 -1.542969 L 4.015625 -2.273438 L 1.601562 -2.273438 L 1.601562 -2.898438 L 4.222656 -2.898438 L 4.222656 -3.746094 L 0.261719 -3.746094 Z M 0.261719 0 "/></g></g></g></svg>